G75*
%MOIN*%
%OFA0B0*%
%FSLAX25Y25*%
%IPPOS*%
%LPD*%
%AMOC8*
5,1,8,0,0,1.08239X$1,22.5*
%
%ADD10R,0.05124X0.08274*%
%ADD11R,0.02762X0.05715*%
%ADD12R,0.04731X0.04337*%
%ADD13C,0.07800*%
%ADD14R,0.07800X0.07800*%
%ADD15C,0.13400*%
%ADD16R,0.01778X0.03550*%
%ADD17R,0.03550X0.01778*%
%ADD18R,0.07400X0.07400*%
%ADD19R,0.05400X0.02900*%
%ADD20C,0.00500*%
D10*
X0182310Y0075531D03*
X0204357Y0075531D03*
X0204357Y0174469D03*
X0182310Y0174469D03*
X0182310Y0186531D03*
X0204357Y0186531D03*
X0204357Y0285469D03*
X0204357Y0297531D03*
X0182310Y0297531D03*
X0182310Y0285469D03*
X0182310Y0396469D03*
X0204357Y0396469D03*
X0204357Y0408531D03*
X0182310Y0408531D03*
X0182310Y0507469D03*
X0204357Y0507469D03*
X0363310Y0507469D03*
X0385357Y0507469D03*
X0385357Y0408531D03*
X0363310Y0408531D03*
X0363310Y0396469D03*
X0385357Y0396469D03*
X0385357Y0297531D03*
X0385357Y0285469D03*
X0363310Y0285469D03*
X0363310Y0297531D03*
X0363310Y0186531D03*
X0385357Y0186531D03*
X0385357Y0174469D03*
X0363310Y0174469D03*
X0363310Y0075531D03*
X0385357Y0075531D03*
X0544310Y0075531D03*
X0566357Y0075531D03*
X0566357Y0174469D03*
X0544310Y0174469D03*
X0544310Y0186531D03*
X0566357Y0186531D03*
X0566357Y0285469D03*
X0566357Y0297531D03*
X0544310Y0297531D03*
X0544310Y0285469D03*
X0544310Y0396469D03*
X0566357Y0396469D03*
X0566357Y0408531D03*
X0544310Y0408531D03*
X0544310Y0507469D03*
X0566357Y0507469D03*
X0725310Y0507469D03*
X0747357Y0507469D03*
X0747357Y0408531D03*
X0725310Y0408531D03*
X0725310Y0396469D03*
X0747357Y0396469D03*
X0747357Y0297531D03*
X0747357Y0285469D03*
X0725310Y0285469D03*
X0725310Y0297531D03*
X0725310Y0186531D03*
X0747357Y0186531D03*
X0747357Y0174469D03*
X0725310Y0174469D03*
X0725310Y0075531D03*
X0747357Y0075531D03*
D11*
X0742239Y0090000D03*
X0738302Y0090000D03*
X0734365Y0090000D03*
X0730428Y0090000D03*
X0730428Y0160000D03*
X0734365Y0160000D03*
X0738302Y0160000D03*
X0742239Y0160000D03*
X0742239Y0201000D03*
X0738302Y0201000D03*
X0734365Y0201000D03*
X0730428Y0201000D03*
X0730428Y0271000D03*
X0734365Y0271000D03*
X0738302Y0271000D03*
X0742239Y0271000D03*
X0742239Y0312000D03*
X0738302Y0312000D03*
X0734365Y0312000D03*
X0730428Y0312000D03*
X0730428Y0382000D03*
X0734365Y0382000D03*
X0738302Y0382000D03*
X0742239Y0382000D03*
X0742239Y0423000D03*
X0738302Y0423000D03*
X0734365Y0423000D03*
X0730428Y0423000D03*
X0730428Y0493000D03*
X0734365Y0493000D03*
X0738302Y0493000D03*
X0742239Y0493000D03*
X0561239Y0493000D03*
X0557302Y0493000D03*
X0553365Y0493000D03*
X0549428Y0493000D03*
X0549428Y0423000D03*
X0553365Y0423000D03*
X0557302Y0423000D03*
X0561239Y0423000D03*
X0561239Y0382000D03*
X0557302Y0382000D03*
X0553365Y0382000D03*
X0549428Y0382000D03*
X0549428Y0312000D03*
X0553365Y0312000D03*
X0557302Y0312000D03*
X0561239Y0312000D03*
X0561239Y0271000D03*
X0557302Y0271000D03*
X0553365Y0271000D03*
X0549428Y0271000D03*
X0549428Y0201000D03*
X0553365Y0201000D03*
X0557302Y0201000D03*
X0561239Y0201000D03*
X0561239Y0160000D03*
X0557302Y0160000D03*
X0553365Y0160000D03*
X0549428Y0160000D03*
X0549428Y0090000D03*
X0553365Y0090000D03*
X0557302Y0090000D03*
X0561239Y0090000D03*
X0380239Y0090000D03*
X0376302Y0090000D03*
X0372365Y0090000D03*
X0368428Y0090000D03*
X0368428Y0160000D03*
X0372365Y0160000D03*
X0376302Y0160000D03*
X0380239Y0160000D03*
X0380239Y0201000D03*
X0376302Y0201000D03*
X0372365Y0201000D03*
X0368428Y0201000D03*
X0368428Y0271000D03*
X0372365Y0271000D03*
X0376302Y0271000D03*
X0380239Y0271000D03*
X0380239Y0312000D03*
X0376302Y0312000D03*
X0372365Y0312000D03*
X0368428Y0312000D03*
X0368428Y0382000D03*
X0372365Y0382000D03*
X0376302Y0382000D03*
X0380239Y0382000D03*
X0380239Y0423000D03*
X0376302Y0423000D03*
X0372365Y0423000D03*
X0368428Y0423000D03*
X0368428Y0493000D03*
X0372365Y0493000D03*
X0376302Y0493000D03*
X0380239Y0493000D03*
X0199239Y0493000D03*
X0195302Y0493000D03*
X0191365Y0493000D03*
X0187428Y0493000D03*
X0187428Y0423000D03*
X0191365Y0423000D03*
X0195302Y0423000D03*
X0199239Y0423000D03*
X0199239Y0382000D03*
X0195302Y0382000D03*
X0191365Y0382000D03*
X0187428Y0382000D03*
X0187428Y0312000D03*
X0191365Y0312000D03*
X0195302Y0312000D03*
X0199239Y0312000D03*
X0199239Y0271000D03*
X0195302Y0271000D03*
X0191365Y0271000D03*
X0187428Y0271000D03*
X0187428Y0201000D03*
X0191365Y0201000D03*
X0195302Y0201000D03*
X0199239Y0201000D03*
X0199239Y0160000D03*
X0195302Y0160000D03*
X0191365Y0160000D03*
X0187428Y0160000D03*
X0187428Y0090000D03*
X0191365Y0090000D03*
X0195302Y0090000D03*
X0199239Y0090000D03*
D12*
X0209987Y0117500D03*
X0216680Y0117500D03*
X0216680Y0132500D03*
X0209987Y0132500D03*
X0176680Y0132500D03*
X0169987Y0132500D03*
X0169987Y0117500D03*
X0176680Y0117500D03*
X0350987Y0117500D03*
X0357680Y0117500D03*
X0357680Y0132500D03*
X0350987Y0132500D03*
X0390987Y0132500D03*
X0397680Y0132500D03*
X0397680Y0117500D03*
X0390987Y0117500D03*
X0531987Y0117500D03*
X0538680Y0117500D03*
X0538680Y0132500D03*
X0531987Y0132500D03*
X0571987Y0132500D03*
X0578680Y0132500D03*
X0578680Y0117500D03*
X0571987Y0117500D03*
X0712987Y0117500D03*
X0719680Y0117500D03*
X0719680Y0132500D03*
X0712987Y0132500D03*
X0752987Y0132500D03*
X0759680Y0132500D03*
X0759680Y0117500D03*
X0752987Y0117500D03*
X0752987Y0228500D03*
X0759680Y0228500D03*
X0759680Y0243500D03*
X0752987Y0243500D03*
X0719680Y0243500D03*
X0712987Y0243500D03*
X0712987Y0228500D03*
X0719680Y0228500D03*
X0578680Y0228500D03*
X0571987Y0228500D03*
X0571987Y0243500D03*
X0578680Y0243500D03*
X0538680Y0243500D03*
X0531987Y0243500D03*
X0531987Y0228500D03*
X0538680Y0228500D03*
X0397680Y0228500D03*
X0390987Y0228500D03*
X0390987Y0243500D03*
X0397680Y0243500D03*
X0357680Y0243500D03*
X0350987Y0243500D03*
X0350987Y0228500D03*
X0357680Y0228500D03*
X0216680Y0228500D03*
X0209987Y0228500D03*
X0209987Y0243500D03*
X0216680Y0243500D03*
X0176680Y0243500D03*
X0169987Y0243500D03*
X0169987Y0228500D03*
X0176680Y0228500D03*
X0176680Y0339500D03*
X0169987Y0339500D03*
X0169987Y0354500D03*
X0176680Y0354500D03*
X0209987Y0354500D03*
X0216680Y0354500D03*
X0216680Y0339500D03*
X0209987Y0339500D03*
X0350987Y0339500D03*
X0357680Y0339500D03*
X0357680Y0354500D03*
X0350987Y0354500D03*
X0390987Y0354500D03*
X0397680Y0354500D03*
X0397680Y0339500D03*
X0390987Y0339500D03*
X0531987Y0339500D03*
X0538680Y0339500D03*
X0538680Y0354500D03*
X0531987Y0354500D03*
X0571987Y0354500D03*
X0578680Y0354500D03*
X0578680Y0339500D03*
X0571987Y0339500D03*
X0712987Y0339500D03*
X0719680Y0339500D03*
X0719680Y0354500D03*
X0712987Y0354500D03*
X0752987Y0354500D03*
X0759680Y0354500D03*
X0759680Y0339500D03*
X0752987Y0339500D03*
X0752987Y0450500D03*
X0759680Y0450500D03*
X0759680Y0465500D03*
X0752987Y0465500D03*
X0719680Y0465500D03*
X0712987Y0465500D03*
X0712987Y0450500D03*
X0719680Y0450500D03*
X0578680Y0450500D03*
X0571987Y0450500D03*
X0571987Y0465500D03*
X0578680Y0465500D03*
X0538680Y0465500D03*
X0531987Y0465500D03*
X0531987Y0450500D03*
X0538680Y0450500D03*
X0397680Y0450500D03*
X0390987Y0450500D03*
X0390987Y0465500D03*
X0397680Y0465500D03*
X0357680Y0465500D03*
X0350987Y0465500D03*
X0350987Y0450500D03*
X0357680Y0450500D03*
X0216680Y0450500D03*
X0209987Y0450500D03*
X0209987Y0465500D03*
X0216680Y0465500D03*
X0176680Y0465500D03*
X0169987Y0465500D03*
X0169987Y0450500D03*
X0176680Y0450500D03*
D13*
X0148333Y0450500D03*
X0138333Y0445500D03*
X0148333Y0440500D03*
X0138333Y0455500D03*
X0148333Y0460500D03*
X0138333Y0465500D03*
X0148333Y0470500D03*
X0238333Y0465500D03*
X0248333Y0460500D03*
X0238333Y0455500D03*
X0248333Y0450500D03*
X0238333Y0445500D03*
X0248333Y0470500D03*
X0238333Y0475500D03*
X0319333Y0465500D03*
X0329333Y0460500D03*
X0319333Y0455500D03*
X0329333Y0450500D03*
X0319333Y0445500D03*
X0329333Y0440500D03*
X0329333Y0470500D03*
X0419333Y0465500D03*
X0429333Y0460500D03*
X0419333Y0455500D03*
X0429333Y0450500D03*
X0419333Y0445500D03*
X0429333Y0470500D03*
X0419333Y0475500D03*
X0500333Y0465500D03*
X0510333Y0460500D03*
X0500333Y0455500D03*
X0510333Y0450500D03*
X0500333Y0445500D03*
X0510333Y0440500D03*
X0510333Y0470500D03*
X0600333Y0465500D03*
X0610333Y0460500D03*
X0600333Y0455500D03*
X0610333Y0450500D03*
X0600333Y0445500D03*
X0610333Y0470500D03*
X0600333Y0475500D03*
X0681333Y0465500D03*
X0691333Y0460500D03*
X0681333Y0455500D03*
X0691333Y0450500D03*
X0681333Y0445500D03*
X0691333Y0440500D03*
X0691333Y0470500D03*
X0781333Y0465500D03*
X0791333Y0460500D03*
X0781333Y0455500D03*
X0791333Y0450500D03*
X0781333Y0445500D03*
X0791333Y0470500D03*
X0781333Y0475500D03*
X0776333Y0408000D03*
X0766333Y0408000D03*
X0756333Y0408000D03*
X0786333Y0408000D03*
X0796333Y0408000D03*
X0781333Y0364500D03*
X0791333Y0359500D03*
X0781333Y0354500D03*
X0791333Y0349500D03*
X0781333Y0344500D03*
X0791333Y0339500D03*
X0781333Y0334500D03*
X0776333Y0297000D03*
X0766333Y0297000D03*
X0756333Y0297000D03*
X0786333Y0297000D03*
X0796333Y0297000D03*
X0781333Y0253500D03*
X0791333Y0248500D03*
X0781333Y0243500D03*
X0791333Y0238500D03*
X0781333Y0233500D03*
X0791333Y0228500D03*
X0781333Y0223500D03*
X0776333Y0186000D03*
X0766333Y0186000D03*
X0756333Y0186000D03*
X0786333Y0186000D03*
X0796333Y0186000D03*
X0781333Y0142500D03*
X0791333Y0137500D03*
X0781333Y0132500D03*
X0791333Y0127500D03*
X0781333Y0122500D03*
X0791333Y0117500D03*
X0781333Y0112500D03*
X0776333Y0075000D03*
X0766333Y0075000D03*
X0756333Y0075000D03*
X0786333Y0075000D03*
X0796333Y0075000D03*
X0706333Y0075000D03*
X0696333Y0075000D03*
X0686333Y0075000D03*
X0676333Y0075000D03*
X0691333Y0107500D03*
X0681333Y0112500D03*
X0691333Y0117500D03*
X0681333Y0122500D03*
X0691333Y0127500D03*
X0681333Y0132500D03*
X0691333Y0137500D03*
X0686333Y0186000D03*
X0676333Y0186000D03*
X0696333Y0186000D03*
X0706333Y0186000D03*
X0691333Y0218500D03*
X0681333Y0223500D03*
X0691333Y0228500D03*
X0681333Y0233500D03*
X0691333Y0238500D03*
X0681333Y0243500D03*
X0691333Y0248500D03*
X0686333Y0297000D03*
X0676333Y0297000D03*
X0696333Y0297000D03*
X0706333Y0297000D03*
X0691333Y0329500D03*
X0681333Y0334500D03*
X0691333Y0339500D03*
X0681333Y0344500D03*
X0691333Y0349500D03*
X0681333Y0354500D03*
X0691333Y0359500D03*
X0686333Y0408000D03*
X0676333Y0408000D03*
X0696333Y0408000D03*
X0706333Y0408000D03*
X0615333Y0408000D03*
X0605333Y0408000D03*
X0595333Y0408000D03*
X0585333Y0408000D03*
X0575333Y0408000D03*
X0525333Y0408000D03*
X0515333Y0408000D03*
X0505333Y0408000D03*
X0495333Y0408000D03*
X0434333Y0408000D03*
X0424333Y0408000D03*
X0414333Y0408000D03*
X0404333Y0408000D03*
X0394333Y0408000D03*
X0344333Y0408000D03*
X0334333Y0408000D03*
X0324333Y0408000D03*
X0314333Y0408000D03*
X0253333Y0408000D03*
X0243333Y0408000D03*
X0233333Y0408000D03*
X0223333Y0408000D03*
X0213333Y0408000D03*
X0163333Y0408000D03*
X0153333Y0408000D03*
X0143333Y0408000D03*
X0133333Y0408000D03*
X0148333Y0359500D03*
X0138333Y0354500D03*
X0148333Y0349500D03*
X0138333Y0344500D03*
X0148333Y0339500D03*
X0138333Y0334500D03*
X0148333Y0329500D03*
X0143333Y0297000D03*
X0133333Y0297000D03*
X0153333Y0297000D03*
X0163333Y0297000D03*
X0213333Y0297000D03*
X0223333Y0297000D03*
X0233333Y0297000D03*
X0243333Y0297000D03*
X0253333Y0297000D03*
X0238333Y0334500D03*
X0248333Y0339500D03*
X0238333Y0344500D03*
X0248333Y0349500D03*
X0238333Y0354500D03*
X0248333Y0359500D03*
X0238333Y0364500D03*
X0319333Y0354500D03*
X0329333Y0349500D03*
X0319333Y0344500D03*
X0329333Y0339500D03*
X0319333Y0334500D03*
X0329333Y0329500D03*
X0329333Y0359500D03*
X0419333Y0354500D03*
X0429333Y0349500D03*
X0419333Y0344500D03*
X0429333Y0339500D03*
X0419333Y0334500D03*
X0429333Y0359500D03*
X0419333Y0364500D03*
X0500333Y0354500D03*
X0510333Y0349500D03*
X0500333Y0344500D03*
X0510333Y0339500D03*
X0500333Y0334500D03*
X0510333Y0329500D03*
X0510333Y0359500D03*
X0600333Y0354500D03*
X0610333Y0349500D03*
X0600333Y0344500D03*
X0610333Y0339500D03*
X0600333Y0334500D03*
X0610333Y0359500D03*
X0600333Y0364500D03*
X0595333Y0297000D03*
X0585333Y0297000D03*
X0575333Y0297000D03*
X0605333Y0297000D03*
X0615333Y0297000D03*
X0600333Y0253500D03*
X0610333Y0248500D03*
X0600333Y0243500D03*
X0610333Y0238500D03*
X0600333Y0233500D03*
X0610333Y0228500D03*
X0600333Y0223500D03*
X0595333Y0186000D03*
X0585333Y0186000D03*
X0575333Y0186000D03*
X0605333Y0186000D03*
X0615333Y0186000D03*
X0600333Y0142500D03*
X0610333Y0137500D03*
X0600333Y0132500D03*
X0610333Y0127500D03*
X0600333Y0122500D03*
X0610333Y0117500D03*
X0600333Y0112500D03*
X0595333Y0075000D03*
X0585333Y0075000D03*
X0575333Y0075000D03*
X0605333Y0075000D03*
X0615333Y0075000D03*
X0525333Y0075000D03*
X0515333Y0075000D03*
X0505333Y0075000D03*
X0495333Y0075000D03*
X0510333Y0107500D03*
X0500333Y0112500D03*
X0510333Y0117500D03*
X0500333Y0122500D03*
X0510333Y0127500D03*
X0500333Y0132500D03*
X0510333Y0137500D03*
X0505333Y0186000D03*
X0495333Y0186000D03*
X0515333Y0186000D03*
X0525333Y0186000D03*
X0510333Y0218500D03*
X0500333Y0223500D03*
X0510333Y0228500D03*
X0500333Y0233500D03*
X0510333Y0238500D03*
X0500333Y0243500D03*
X0510333Y0248500D03*
X0505333Y0297000D03*
X0495333Y0297000D03*
X0515333Y0297000D03*
X0525333Y0297000D03*
X0434333Y0297000D03*
X0424333Y0297000D03*
X0414333Y0297000D03*
X0404333Y0297000D03*
X0394333Y0297000D03*
X0344333Y0297000D03*
X0334333Y0297000D03*
X0324333Y0297000D03*
X0314333Y0297000D03*
X0329333Y0248500D03*
X0319333Y0243500D03*
X0329333Y0238500D03*
X0319333Y0233500D03*
X0329333Y0228500D03*
X0319333Y0223500D03*
X0329333Y0218500D03*
X0324333Y0186000D03*
X0314333Y0186000D03*
X0334333Y0186000D03*
X0344333Y0186000D03*
X0394333Y0186000D03*
X0404333Y0186000D03*
X0414333Y0186000D03*
X0424333Y0186000D03*
X0434333Y0186000D03*
X0419333Y0223500D03*
X0429333Y0228500D03*
X0419333Y0233500D03*
X0429333Y0238500D03*
X0419333Y0243500D03*
X0429333Y0248500D03*
X0419333Y0253500D03*
X0253333Y0186000D03*
X0243333Y0186000D03*
X0233333Y0186000D03*
X0223333Y0186000D03*
X0213333Y0186000D03*
X0163333Y0186000D03*
X0153333Y0186000D03*
X0143333Y0186000D03*
X0133333Y0186000D03*
X0148333Y0218500D03*
X0138333Y0223500D03*
X0148333Y0228500D03*
X0138333Y0233500D03*
X0148333Y0238500D03*
X0138333Y0243500D03*
X0148333Y0248500D03*
X0238333Y0243500D03*
X0248333Y0238500D03*
X0238333Y0233500D03*
X0248333Y0228500D03*
X0238333Y0223500D03*
X0248333Y0248500D03*
X0238333Y0253500D03*
X0238333Y0142500D03*
X0248333Y0137500D03*
X0238333Y0132500D03*
X0248333Y0127500D03*
X0238333Y0122500D03*
X0248333Y0117500D03*
X0238333Y0112500D03*
X0233333Y0075000D03*
X0243333Y0075000D03*
X0253333Y0075000D03*
X0223333Y0075000D03*
X0213333Y0075000D03*
X0163333Y0075000D03*
X0153333Y0075000D03*
X0143333Y0075000D03*
X0133333Y0075000D03*
X0148333Y0107500D03*
X0138333Y0112500D03*
X0148333Y0117500D03*
X0138333Y0122500D03*
X0148333Y0127500D03*
X0138333Y0132500D03*
X0148333Y0137500D03*
X0314333Y0075000D03*
X0324333Y0075000D03*
X0334333Y0075000D03*
X0344333Y0075000D03*
X0394333Y0075000D03*
X0404333Y0075000D03*
X0414333Y0075000D03*
X0424333Y0075000D03*
X0434333Y0075000D03*
X0419333Y0112500D03*
X0429333Y0117500D03*
X0419333Y0122500D03*
X0429333Y0127500D03*
X0419333Y0132500D03*
X0429333Y0137500D03*
X0419333Y0142500D03*
X0329333Y0137500D03*
X0319333Y0132500D03*
X0329333Y0127500D03*
X0319333Y0122500D03*
X0329333Y0117500D03*
X0319333Y0112500D03*
X0329333Y0107500D03*
D14*
X0319333Y0142500D03*
X0248333Y0107500D03*
X0138333Y0142500D03*
X0248333Y0218500D03*
X0319333Y0253500D03*
X0429333Y0218500D03*
X0500333Y0253500D03*
X0610333Y0218500D03*
X0681333Y0253500D03*
X0791333Y0218500D03*
X0681333Y0142500D03*
X0610333Y0107500D03*
X0500333Y0142500D03*
X0429333Y0107500D03*
X0138333Y0253500D03*
X0248333Y0329500D03*
X0319333Y0364500D03*
X0429333Y0329500D03*
X0500333Y0364500D03*
X0610333Y0329500D03*
X0681333Y0364500D03*
X0791333Y0329500D03*
X0791333Y0440500D03*
X0681333Y0475500D03*
X0610333Y0440500D03*
X0500333Y0475500D03*
X0429333Y0440500D03*
X0319333Y0475500D03*
X0248333Y0440500D03*
X0138333Y0475500D03*
X0138333Y0364500D03*
X0791333Y0107500D03*
D15*
X0113333Y0080000D03*
X0113333Y0170000D03*
X0113333Y0191000D03*
X0113333Y0281000D03*
X0113333Y0302000D03*
X0113333Y0392000D03*
X0113333Y0413000D03*
X0113333Y0503000D03*
X0273333Y0503000D03*
X0294333Y0503000D03*
X0294333Y0413000D03*
X0273333Y0413000D03*
X0273333Y0392000D03*
X0294333Y0392000D03*
X0294333Y0302000D03*
X0273333Y0302000D03*
X0273333Y0281000D03*
X0294333Y0281000D03*
X0294333Y0191000D03*
X0273333Y0191000D03*
X0273333Y0170000D03*
X0294333Y0170000D03*
X0294333Y0080000D03*
X0273333Y0080000D03*
X0454333Y0080000D03*
X0475333Y0080000D03*
X0475333Y0170000D03*
X0454333Y0170000D03*
X0454333Y0191000D03*
X0475333Y0191000D03*
X0475333Y0281000D03*
X0454333Y0281000D03*
X0454333Y0302000D03*
X0475333Y0302000D03*
X0475333Y0392000D03*
X0454333Y0392000D03*
X0454333Y0413000D03*
X0475333Y0413000D03*
X0475333Y0503000D03*
X0454333Y0503000D03*
X0635333Y0503000D03*
X0656333Y0503000D03*
X0656333Y0413000D03*
X0635333Y0413000D03*
X0635333Y0392000D03*
X0656333Y0392000D03*
X0656333Y0302000D03*
X0635333Y0302000D03*
X0635333Y0281000D03*
X0656333Y0281000D03*
X0656333Y0191000D03*
X0635333Y0191000D03*
X0635333Y0170000D03*
X0656333Y0170000D03*
X0656333Y0080000D03*
X0635333Y0080000D03*
X0816333Y0080000D03*
X0816333Y0170000D03*
X0816333Y0191000D03*
X0816333Y0281000D03*
X0816333Y0302000D03*
X0816333Y0392000D03*
X0816333Y0413000D03*
X0816333Y0503000D03*
D16*
X0740172Y0465874D03*
X0737613Y0465874D03*
X0735054Y0465874D03*
X0732495Y0465874D03*
X0732495Y0450126D03*
X0735054Y0450126D03*
X0737613Y0450126D03*
X0740172Y0450126D03*
X0740172Y0354874D03*
X0737613Y0354874D03*
X0735054Y0354874D03*
X0732495Y0354874D03*
X0732495Y0339126D03*
X0735054Y0339126D03*
X0737613Y0339126D03*
X0740172Y0339126D03*
X0740172Y0243874D03*
X0737613Y0243874D03*
X0735054Y0243874D03*
X0732495Y0243874D03*
X0732495Y0228126D03*
X0735054Y0228126D03*
X0737613Y0228126D03*
X0740172Y0228126D03*
X0740172Y0132874D03*
X0737613Y0132874D03*
X0735054Y0132874D03*
X0732495Y0132874D03*
X0732495Y0117126D03*
X0735054Y0117126D03*
X0737613Y0117126D03*
X0740172Y0117126D03*
X0559172Y0117126D03*
X0556613Y0117126D03*
X0554054Y0117126D03*
X0551495Y0117126D03*
X0551495Y0132874D03*
X0554054Y0132874D03*
X0556613Y0132874D03*
X0559172Y0132874D03*
X0559172Y0228126D03*
X0556613Y0228126D03*
X0554054Y0228126D03*
X0551495Y0228126D03*
X0551495Y0243874D03*
X0554054Y0243874D03*
X0556613Y0243874D03*
X0559172Y0243874D03*
X0559172Y0339126D03*
X0556613Y0339126D03*
X0554054Y0339126D03*
X0551495Y0339126D03*
X0551495Y0354874D03*
X0554054Y0354874D03*
X0556613Y0354874D03*
X0559172Y0354874D03*
X0559172Y0450126D03*
X0556613Y0450126D03*
X0554054Y0450126D03*
X0551495Y0450126D03*
X0551495Y0465874D03*
X0554054Y0465874D03*
X0556613Y0465874D03*
X0559172Y0465874D03*
X0378172Y0465874D03*
X0375613Y0465874D03*
X0373054Y0465874D03*
X0370495Y0465874D03*
X0370495Y0450126D03*
X0373054Y0450126D03*
X0375613Y0450126D03*
X0378172Y0450126D03*
X0378172Y0354874D03*
X0375613Y0354874D03*
X0373054Y0354874D03*
X0370495Y0354874D03*
X0370495Y0339126D03*
X0373054Y0339126D03*
X0375613Y0339126D03*
X0378172Y0339126D03*
X0378172Y0243874D03*
X0375613Y0243874D03*
X0373054Y0243874D03*
X0370495Y0243874D03*
X0370495Y0228126D03*
X0373054Y0228126D03*
X0375613Y0228126D03*
X0378172Y0228126D03*
X0378172Y0132874D03*
X0375613Y0132874D03*
X0373054Y0132874D03*
X0370495Y0132874D03*
X0370495Y0117126D03*
X0373054Y0117126D03*
X0375613Y0117126D03*
X0378172Y0117126D03*
X0197172Y0117126D03*
X0194613Y0117126D03*
X0192054Y0117126D03*
X0189495Y0117126D03*
X0189495Y0132874D03*
X0192054Y0132874D03*
X0194613Y0132874D03*
X0197172Y0132874D03*
X0197172Y0228126D03*
X0194613Y0228126D03*
X0192054Y0228126D03*
X0189495Y0228126D03*
X0189495Y0243874D03*
X0192054Y0243874D03*
X0194613Y0243874D03*
X0197172Y0243874D03*
X0197172Y0339126D03*
X0194613Y0339126D03*
X0192054Y0339126D03*
X0189495Y0339126D03*
X0189495Y0354874D03*
X0192054Y0354874D03*
X0194613Y0354874D03*
X0197172Y0354874D03*
X0197172Y0450126D03*
X0194613Y0450126D03*
X0192054Y0450126D03*
X0189495Y0450126D03*
X0189495Y0465874D03*
X0192054Y0465874D03*
X0194613Y0465874D03*
X0197172Y0465874D03*
D17*
X0201207Y0461839D03*
X0201207Y0459280D03*
X0201207Y0456720D03*
X0201207Y0454161D03*
X0185459Y0454161D03*
X0185459Y0456720D03*
X0185459Y0459280D03*
X0185459Y0461839D03*
X0185459Y0350839D03*
X0185459Y0348280D03*
X0185459Y0345720D03*
X0185459Y0343161D03*
X0201207Y0343161D03*
X0201207Y0345720D03*
X0201207Y0348280D03*
X0201207Y0350839D03*
X0366459Y0350839D03*
X0366459Y0348280D03*
X0366459Y0345720D03*
X0366459Y0343161D03*
X0382207Y0343161D03*
X0382207Y0345720D03*
X0382207Y0348280D03*
X0382207Y0350839D03*
X0547459Y0350839D03*
X0547459Y0348280D03*
X0547459Y0345720D03*
X0547459Y0343161D03*
X0563207Y0343161D03*
X0563207Y0345720D03*
X0563207Y0348280D03*
X0563207Y0350839D03*
X0728459Y0350839D03*
X0728459Y0348280D03*
X0728459Y0345720D03*
X0728459Y0343161D03*
X0744207Y0343161D03*
X0744207Y0345720D03*
X0744207Y0348280D03*
X0744207Y0350839D03*
X0744207Y0454161D03*
X0744207Y0456720D03*
X0744207Y0459280D03*
X0744207Y0461839D03*
X0728459Y0461839D03*
X0728459Y0459280D03*
X0728459Y0456720D03*
X0728459Y0454161D03*
X0563207Y0454161D03*
X0563207Y0456720D03*
X0563207Y0459280D03*
X0563207Y0461839D03*
X0547459Y0461839D03*
X0547459Y0459280D03*
X0547459Y0456720D03*
X0547459Y0454161D03*
X0382207Y0454161D03*
X0382207Y0456720D03*
X0382207Y0459280D03*
X0382207Y0461839D03*
X0366459Y0461839D03*
X0366459Y0459280D03*
X0366459Y0456720D03*
X0366459Y0454161D03*
X0366459Y0239839D03*
X0366459Y0237280D03*
X0366459Y0234720D03*
X0366459Y0232161D03*
X0382207Y0232161D03*
X0382207Y0234720D03*
X0382207Y0237280D03*
X0382207Y0239839D03*
X0547459Y0239839D03*
X0547459Y0237280D03*
X0547459Y0234720D03*
X0547459Y0232161D03*
X0563207Y0232161D03*
X0563207Y0234720D03*
X0563207Y0237280D03*
X0563207Y0239839D03*
X0728459Y0239839D03*
X0728459Y0237280D03*
X0728459Y0234720D03*
X0728459Y0232161D03*
X0744207Y0232161D03*
X0744207Y0234720D03*
X0744207Y0237280D03*
X0744207Y0239839D03*
X0744207Y0128839D03*
X0744207Y0126280D03*
X0744207Y0123720D03*
X0744207Y0121161D03*
X0728459Y0121161D03*
X0728459Y0123720D03*
X0728459Y0126280D03*
X0728459Y0128839D03*
X0563207Y0128839D03*
X0563207Y0126280D03*
X0563207Y0123720D03*
X0563207Y0121161D03*
X0547459Y0121161D03*
X0547459Y0123720D03*
X0547459Y0126280D03*
X0547459Y0128839D03*
X0382207Y0128839D03*
X0382207Y0126280D03*
X0382207Y0123720D03*
X0382207Y0121161D03*
X0366459Y0121161D03*
X0366459Y0123720D03*
X0366459Y0126280D03*
X0366459Y0128839D03*
X0201207Y0128839D03*
X0201207Y0126280D03*
X0201207Y0123720D03*
X0201207Y0121161D03*
X0185459Y0121161D03*
X0185459Y0123720D03*
X0185459Y0126280D03*
X0185459Y0128839D03*
X0185459Y0232161D03*
X0185459Y0234720D03*
X0185459Y0237280D03*
X0185459Y0239839D03*
X0201207Y0239839D03*
X0201207Y0237280D03*
X0201207Y0234720D03*
X0201207Y0232161D03*
D18*
X0193333Y0236000D03*
X0193333Y0125000D03*
X0374333Y0125000D03*
X0374333Y0236000D03*
X0555333Y0236000D03*
X0555333Y0125000D03*
X0736333Y0125000D03*
X0736333Y0236000D03*
X0736333Y0347000D03*
X0736333Y0458000D03*
X0555333Y0458000D03*
X0555333Y0347000D03*
X0374333Y0347000D03*
X0374333Y0458000D03*
X0193333Y0458000D03*
X0193333Y0347000D03*
D19*
X0223333Y0347000D03*
X0223333Y0343000D03*
X0223333Y0351000D03*
X0163333Y0349000D03*
X0163333Y0345000D03*
X0163333Y0238000D03*
X0163333Y0234000D03*
X0223333Y0232000D03*
X0223333Y0236000D03*
X0223333Y0240000D03*
X0344333Y0238000D03*
X0344333Y0234000D03*
X0404333Y0232000D03*
X0404333Y0236000D03*
X0404333Y0240000D03*
X0525333Y0238000D03*
X0525333Y0234000D03*
X0585333Y0232000D03*
X0585333Y0236000D03*
X0585333Y0240000D03*
X0706333Y0238000D03*
X0706333Y0234000D03*
X0766333Y0232000D03*
X0766333Y0236000D03*
X0766333Y0240000D03*
X0766333Y0343000D03*
X0766333Y0347000D03*
X0766333Y0351000D03*
X0706333Y0349000D03*
X0706333Y0345000D03*
X0585333Y0343000D03*
X0585333Y0347000D03*
X0585333Y0351000D03*
X0525333Y0349000D03*
X0525333Y0345000D03*
X0404333Y0343000D03*
X0404333Y0347000D03*
X0404333Y0351000D03*
X0344333Y0349000D03*
X0344333Y0345000D03*
X0344333Y0456000D03*
X0344333Y0460000D03*
X0404333Y0458000D03*
X0404333Y0454000D03*
X0404333Y0462000D03*
X0525333Y0460000D03*
X0525333Y0456000D03*
X0585333Y0454000D03*
X0585333Y0458000D03*
X0585333Y0462000D03*
X0706333Y0460000D03*
X0706333Y0456000D03*
X0766333Y0454000D03*
X0766333Y0458000D03*
X0766333Y0462000D03*
X0766333Y0129000D03*
X0766333Y0125000D03*
X0766333Y0121000D03*
X0706333Y0123000D03*
X0706333Y0127000D03*
X0585333Y0125000D03*
X0585333Y0121000D03*
X0585333Y0129000D03*
X0525333Y0127000D03*
X0525333Y0123000D03*
X0404333Y0121000D03*
X0404333Y0125000D03*
X0404333Y0129000D03*
X0344333Y0127000D03*
X0344333Y0123000D03*
X0223333Y0121000D03*
X0223333Y0125000D03*
X0223333Y0129000D03*
X0163333Y0127000D03*
X0163333Y0123000D03*
X0163333Y0456000D03*
X0163333Y0460000D03*
X0223333Y0458000D03*
X0223333Y0454000D03*
X0223333Y0462000D03*
D20*
X0222833Y0460750D02*
X0223833Y0460750D01*
X0223833Y0459250D01*
X0222833Y0459250D01*
X0222833Y0460750D01*
X0222833Y0460334D02*
X0223833Y0460334D01*
X0223833Y0459836D02*
X0222833Y0459836D01*
X0222833Y0459337D02*
X0223833Y0459337D01*
X0223833Y0456750D02*
X0222833Y0456750D01*
X0222833Y0455250D01*
X0223833Y0455250D01*
X0223833Y0456750D01*
X0223833Y0456346D02*
X0222833Y0456346D01*
X0222833Y0455848D02*
X0223833Y0455848D01*
X0223833Y0455349D02*
X0222833Y0455349D01*
X0163833Y0457250D02*
X0162833Y0457250D01*
X0162833Y0458750D01*
X0163833Y0458750D01*
X0163833Y0457250D01*
X0163833Y0457343D02*
X0162833Y0457343D01*
X0162833Y0457842D02*
X0163833Y0457842D01*
X0163833Y0458340D02*
X0162833Y0458340D01*
X0162833Y0347750D02*
X0163833Y0347750D01*
X0163833Y0346250D01*
X0162833Y0346250D01*
X0162833Y0347750D01*
X0162833Y0347671D02*
X0163833Y0347671D01*
X0163833Y0347172D02*
X0162833Y0347172D01*
X0162833Y0346674D02*
X0163833Y0346674D01*
X0222833Y0345750D02*
X0222833Y0344250D01*
X0223833Y0344250D01*
X0223833Y0345750D01*
X0222833Y0345750D01*
X0222833Y0345677D02*
X0223833Y0345677D01*
X0223833Y0345178D02*
X0222833Y0345178D01*
X0222833Y0344680D02*
X0223833Y0344680D01*
X0223833Y0348250D02*
X0222833Y0348250D01*
X0222833Y0349750D01*
X0223833Y0349750D01*
X0223833Y0348250D01*
X0223833Y0348668D02*
X0222833Y0348668D01*
X0222833Y0349166D02*
X0223833Y0349166D01*
X0223833Y0349665D02*
X0222833Y0349665D01*
X0343833Y0347750D02*
X0344833Y0347750D01*
X0344833Y0346250D01*
X0343833Y0346250D01*
X0343833Y0347750D01*
X0343833Y0347671D02*
X0344833Y0347671D01*
X0344833Y0347172D02*
X0343833Y0347172D01*
X0343833Y0346674D02*
X0344833Y0346674D01*
X0403833Y0345750D02*
X0403833Y0344250D01*
X0404833Y0344250D01*
X0404833Y0345750D01*
X0403833Y0345750D01*
X0403833Y0345677D02*
X0404833Y0345677D01*
X0404833Y0345178D02*
X0403833Y0345178D01*
X0403833Y0344680D02*
X0404833Y0344680D01*
X0404833Y0348250D02*
X0403833Y0348250D01*
X0403833Y0349750D01*
X0404833Y0349750D01*
X0404833Y0348250D01*
X0404833Y0348668D02*
X0403833Y0348668D01*
X0403833Y0349166D02*
X0404833Y0349166D01*
X0404833Y0349665D02*
X0403833Y0349665D01*
X0524833Y0347750D02*
X0525833Y0347750D01*
X0525833Y0346250D01*
X0524833Y0346250D01*
X0524833Y0347750D01*
X0524833Y0347671D02*
X0525833Y0347671D01*
X0525833Y0347172D02*
X0524833Y0347172D01*
X0524833Y0346674D02*
X0525833Y0346674D01*
X0584833Y0345750D02*
X0584833Y0344250D01*
X0585833Y0344250D01*
X0585833Y0345750D01*
X0584833Y0345750D01*
X0584833Y0345677D02*
X0585833Y0345677D01*
X0585833Y0345178D02*
X0584833Y0345178D01*
X0584833Y0344680D02*
X0585833Y0344680D01*
X0585833Y0348250D02*
X0584833Y0348250D01*
X0584833Y0349750D01*
X0585833Y0349750D01*
X0585833Y0348250D01*
X0585833Y0348668D02*
X0584833Y0348668D01*
X0584833Y0349166D02*
X0585833Y0349166D01*
X0585833Y0349665D02*
X0584833Y0349665D01*
X0705833Y0347750D02*
X0706833Y0347750D01*
X0706833Y0346250D01*
X0705833Y0346250D01*
X0705833Y0347750D01*
X0705833Y0347671D02*
X0706833Y0347671D01*
X0706833Y0347172D02*
X0705833Y0347172D01*
X0705833Y0346674D02*
X0706833Y0346674D01*
X0765833Y0345750D02*
X0765833Y0344250D01*
X0766833Y0344250D01*
X0766833Y0345750D01*
X0765833Y0345750D01*
X0765833Y0345677D02*
X0766833Y0345677D01*
X0766833Y0345178D02*
X0765833Y0345178D01*
X0765833Y0344680D02*
X0766833Y0344680D01*
X0766833Y0348250D02*
X0765833Y0348250D01*
X0765833Y0349750D01*
X0766833Y0349750D01*
X0766833Y0348250D01*
X0766833Y0348668D02*
X0765833Y0348668D01*
X0765833Y0349166D02*
X0766833Y0349166D01*
X0766833Y0349665D02*
X0765833Y0349665D01*
X0765833Y0455250D02*
X0765833Y0456750D01*
X0766833Y0456750D01*
X0766833Y0455250D01*
X0765833Y0455250D01*
X0765833Y0455349D02*
X0766833Y0455349D01*
X0766833Y0455848D02*
X0765833Y0455848D01*
X0765833Y0456346D02*
X0766833Y0456346D01*
X0766833Y0459250D02*
X0765833Y0459250D01*
X0765833Y0460750D01*
X0766833Y0460750D01*
X0766833Y0459250D01*
X0766833Y0459337D02*
X0765833Y0459337D01*
X0765833Y0459836D02*
X0766833Y0459836D01*
X0766833Y0460334D02*
X0765833Y0460334D01*
X0706833Y0458750D02*
X0705833Y0458750D01*
X0705833Y0457250D01*
X0706833Y0457250D01*
X0706833Y0458750D01*
X0706833Y0458340D02*
X0705833Y0458340D01*
X0705833Y0457842D02*
X0706833Y0457842D01*
X0706833Y0457343D02*
X0705833Y0457343D01*
X0585833Y0456750D02*
X0584833Y0456750D01*
X0584833Y0455250D01*
X0585833Y0455250D01*
X0585833Y0456750D01*
X0585833Y0456346D02*
X0584833Y0456346D01*
X0584833Y0455848D02*
X0585833Y0455848D01*
X0585833Y0455349D02*
X0584833Y0455349D01*
X0584833Y0459250D02*
X0584833Y0460750D01*
X0585833Y0460750D01*
X0585833Y0459250D01*
X0584833Y0459250D01*
X0584833Y0459337D02*
X0585833Y0459337D01*
X0585833Y0459836D02*
X0584833Y0459836D01*
X0584833Y0460334D02*
X0585833Y0460334D01*
X0525833Y0458750D02*
X0524833Y0458750D01*
X0524833Y0457250D01*
X0525833Y0457250D01*
X0525833Y0458750D01*
X0525833Y0458340D02*
X0524833Y0458340D01*
X0524833Y0457842D02*
X0525833Y0457842D01*
X0525833Y0457343D02*
X0524833Y0457343D01*
X0404833Y0456750D02*
X0403833Y0456750D01*
X0403833Y0455250D01*
X0404833Y0455250D01*
X0404833Y0456750D01*
X0404833Y0456346D02*
X0403833Y0456346D01*
X0403833Y0455848D02*
X0404833Y0455848D01*
X0404833Y0455349D02*
X0403833Y0455349D01*
X0403833Y0459250D02*
X0403833Y0460750D01*
X0404833Y0460750D01*
X0404833Y0459250D01*
X0403833Y0459250D01*
X0403833Y0459337D02*
X0404833Y0459337D01*
X0404833Y0459836D02*
X0403833Y0459836D01*
X0403833Y0460334D02*
X0404833Y0460334D01*
X0344833Y0458750D02*
X0343833Y0458750D01*
X0343833Y0457250D01*
X0344833Y0457250D01*
X0344833Y0458750D01*
X0344833Y0458340D02*
X0343833Y0458340D01*
X0343833Y0457842D02*
X0344833Y0457842D01*
X0344833Y0457343D02*
X0343833Y0457343D01*
X0403833Y0238750D02*
X0404833Y0238750D01*
X0404833Y0237250D01*
X0403833Y0237250D01*
X0403833Y0238750D01*
X0403833Y0238497D02*
X0404833Y0238497D01*
X0404833Y0237998D02*
X0403833Y0237998D01*
X0403833Y0237500D02*
X0404833Y0237500D01*
X0404833Y0234750D02*
X0403833Y0234750D01*
X0403833Y0233250D01*
X0404833Y0233250D01*
X0404833Y0234750D01*
X0404833Y0234509D02*
X0403833Y0234509D01*
X0403833Y0234010D02*
X0404833Y0234010D01*
X0404833Y0233512D02*
X0403833Y0233512D01*
X0344833Y0235250D02*
X0343833Y0235250D01*
X0343833Y0236750D01*
X0344833Y0236750D01*
X0344833Y0235250D01*
X0344833Y0235506D02*
X0343833Y0235506D01*
X0343833Y0236004D02*
X0344833Y0236004D01*
X0344833Y0236503D02*
X0343833Y0236503D01*
X0223833Y0237250D02*
X0222833Y0237250D01*
X0222833Y0238750D01*
X0223833Y0238750D01*
X0223833Y0237250D01*
X0223833Y0237500D02*
X0222833Y0237500D01*
X0222833Y0237998D02*
X0223833Y0237998D01*
X0223833Y0238497D02*
X0222833Y0238497D01*
X0222833Y0234750D02*
X0223833Y0234750D01*
X0223833Y0233250D01*
X0222833Y0233250D01*
X0222833Y0234750D01*
X0222833Y0234509D02*
X0223833Y0234509D01*
X0223833Y0234010D02*
X0222833Y0234010D01*
X0222833Y0233512D02*
X0223833Y0233512D01*
X0163833Y0235250D02*
X0162833Y0235250D01*
X0162833Y0236750D01*
X0163833Y0236750D01*
X0163833Y0235250D01*
X0163833Y0235506D02*
X0162833Y0235506D01*
X0162833Y0236004D02*
X0163833Y0236004D01*
X0163833Y0236503D02*
X0162833Y0236503D01*
X0162833Y0125750D02*
X0163833Y0125750D01*
X0163833Y0124250D01*
X0162833Y0124250D01*
X0162833Y0125750D01*
X0162833Y0125335D02*
X0163833Y0125335D01*
X0163833Y0124836D02*
X0162833Y0124836D01*
X0162833Y0124338D02*
X0163833Y0124338D01*
X0222833Y0123750D02*
X0222833Y0122250D01*
X0223833Y0122250D01*
X0223833Y0123750D01*
X0222833Y0123750D01*
X0222833Y0123341D02*
X0223833Y0123341D01*
X0223833Y0122842D02*
X0222833Y0122842D01*
X0222833Y0122344D02*
X0223833Y0122344D01*
X0223833Y0126250D02*
X0222833Y0126250D01*
X0222833Y0127750D01*
X0223833Y0127750D01*
X0223833Y0126250D01*
X0223833Y0126332D02*
X0222833Y0126332D01*
X0222833Y0126830D02*
X0223833Y0126830D01*
X0223833Y0127329D02*
X0222833Y0127329D01*
X0343833Y0125750D02*
X0344833Y0125750D01*
X0344833Y0124250D01*
X0343833Y0124250D01*
X0343833Y0125750D01*
X0343833Y0125335D02*
X0344833Y0125335D01*
X0344833Y0124836D02*
X0343833Y0124836D01*
X0343833Y0124338D02*
X0344833Y0124338D01*
X0403833Y0123750D02*
X0403833Y0122250D01*
X0404833Y0122250D01*
X0404833Y0123750D01*
X0403833Y0123750D01*
X0403833Y0123341D02*
X0404833Y0123341D01*
X0404833Y0122842D02*
X0403833Y0122842D01*
X0403833Y0122344D02*
X0404833Y0122344D01*
X0404833Y0126250D02*
X0403833Y0126250D01*
X0403833Y0127750D01*
X0404833Y0127750D01*
X0404833Y0126250D01*
X0404833Y0126332D02*
X0403833Y0126332D01*
X0403833Y0126830D02*
X0404833Y0126830D01*
X0404833Y0127329D02*
X0403833Y0127329D01*
X0524833Y0125750D02*
X0525833Y0125750D01*
X0525833Y0124250D01*
X0524833Y0124250D01*
X0524833Y0125750D01*
X0524833Y0125335D02*
X0525833Y0125335D01*
X0525833Y0124836D02*
X0524833Y0124836D01*
X0524833Y0124338D02*
X0525833Y0124338D01*
X0584833Y0123750D02*
X0584833Y0122250D01*
X0585833Y0122250D01*
X0585833Y0123750D01*
X0584833Y0123750D01*
X0584833Y0123341D02*
X0585833Y0123341D01*
X0585833Y0122842D02*
X0584833Y0122842D01*
X0584833Y0122344D02*
X0585833Y0122344D01*
X0585833Y0126250D02*
X0584833Y0126250D01*
X0584833Y0127750D01*
X0585833Y0127750D01*
X0585833Y0126250D01*
X0585833Y0126332D02*
X0584833Y0126332D01*
X0584833Y0126830D02*
X0585833Y0126830D01*
X0585833Y0127329D02*
X0584833Y0127329D01*
X0705833Y0125750D02*
X0706833Y0125750D01*
X0706833Y0124250D01*
X0705833Y0124250D01*
X0705833Y0125750D01*
X0705833Y0125335D02*
X0706833Y0125335D01*
X0706833Y0124836D02*
X0705833Y0124836D01*
X0705833Y0124338D02*
X0706833Y0124338D01*
X0765833Y0123750D02*
X0765833Y0122250D01*
X0766833Y0122250D01*
X0766833Y0123750D01*
X0765833Y0123750D01*
X0765833Y0123341D02*
X0766833Y0123341D01*
X0766833Y0122842D02*
X0765833Y0122842D01*
X0765833Y0122344D02*
X0766833Y0122344D01*
X0766833Y0126250D02*
X0765833Y0126250D01*
X0765833Y0127750D01*
X0766833Y0127750D01*
X0766833Y0126250D01*
X0766833Y0126332D02*
X0765833Y0126332D01*
X0765833Y0126830D02*
X0766833Y0126830D01*
X0766833Y0127329D02*
X0765833Y0127329D01*
X0765833Y0233250D02*
X0765833Y0234750D01*
X0766833Y0234750D01*
X0766833Y0233250D01*
X0765833Y0233250D01*
X0765833Y0233512D02*
X0766833Y0233512D01*
X0766833Y0234010D02*
X0765833Y0234010D01*
X0765833Y0234509D02*
X0766833Y0234509D01*
X0766833Y0237250D02*
X0765833Y0237250D01*
X0765833Y0238750D01*
X0766833Y0238750D01*
X0766833Y0237250D01*
X0766833Y0237500D02*
X0765833Y0237500D01*
X0765833Y0237998D02*
X0766833Y0237998D01*
X0766833Y0238497D02*
X0765833Y0238497D01*
X0706833Y0236750D02*
X0705833Y0236750D01*
X0705833Y0235250D01*
X0706833Y0235250D01*
X0706833Y0236750D01*
X0706833Y0236503D02*
X0705833Y0236503D01*
X0705833Y0236004D02*
X0706833Y0236004D01*
X0706833Y0235506D02*
X0705833Y0235506D01*
X0585833Y0234750D02*
X0584833Y0234750D01*
X0584833Y0233250D01*
X0585833Y0233250D01*
X0585833Y0234750D01*
X0585833Y0234509D02*
X0584833Y0234509D01*
X0584833Y0234010D02*
X0585833Y0234010D01*
X0585833Y0233512D02*
X0584833Y0233512D01*
X0584833Y0237250D02*
X0584833Y0238750D01*
X0585833Y0238750D01*
X0585833Y0237250D01*
X0584833Y0237250D01*
X0584833Y0237500D02*
X0585833Y0237500D01*
X0585833Y0237998D02*
X0584833Y0237998D01*
X0584833Y0238497D02*
X0585833Y0238497D01*
X0525833Y0236750D02*
X0524833Y0236750D01*
X0524833Y0235250D01*
X0525833Y0235250D01*
X0525833Y0236750D01*
X0525833Y0236503D02*
X0524833Y0236503D01*
X0524833Y0236004D02*
X0525833Y0236004D01*
X0525833Y0235506D02*
X0524833Y0235506D01*
M02*
