%
M48
M72
T01C0.0150
T02C0.0394
T03C0.0400
T04C0.1300
%
T01
X18183Y10600
X18183Y11600
X17333Y12250
X18433Y13650
X19833Y14500
X19333Y15000
X20583Y13000
X20833Y12500
X19883Y11350
X19883Y10700
X19833Y10000
X19933Y9550
X22833Y11000
X35433Y12250
X36283Y11600
X36283Y10600
X37983Y10700
X37933Y10000
X38033Y9550
X40933Y11000
X38933Y12500
X38683Y13000
X36533Y13650
X37933Y14500
X37433Y15000
X37983Y11350
X38033Y20650
X37933Y21100
X37983Y21800
X37983Y22450
X38933Y23600
X38683Y24100
X36533Y24750
X37433Y26100
X37933Y25600
X35433Y23350
X36283Y22700
X36283Y21700
X40933Y22100
X53533Y23350
X54383Y22700
X54383Y21700
X56083Y21800
X56083Y22450
X57033Y23600
X56783Y24100
X56033Y25600
X55533Y26100
X54633Y24750
X59033Y22100
X56033Y21100
X56133Y20650
X55533Y15000
X56033Y14500
X54633Y13650
X53533Y12250
X54383Y11600
X54383Y10600
X56083Y10700
X56033Y10000
X56133Y9550
X59033Y11000
X57033Y12500
X56783Y13000
X56083Y11350
X71633Y12250
X72483Y11600
X72483Y10600
X74183Y10700
X74133Y10000
X74233Y9550
X77133Y11000
X75133Y12500
X74883Y13000
X74133Y14500
X73633Y15000
X72733Y13650
X74183Y11350
X74233Y20650
X74133Y21100
X74183Y21800
X74183Y22450
X75133Y23600
X74883Y24100
X74133Y25600
X73633Y26100
X72733Y24750
X71633Y23350
X72483Y22700
X72483Y21700
X77133Y22100
X74233Y31750
X74133Y32200
X74183Y32900
X74183Y33550
X75133Y34700
X74883Y35200
X74133Y36700
X73633Y37200
X72733Y35850
X71633Y34450
X72483Y33800
X72483Y32800
X77133Y33200
X74233Y42850
X74133Y43300
X74183Y44000
X74183Y44650
X75133Y45800
X74883Y46300
X74133Y47800
X73633Y48300
X72733Y46950
X71633Y45550
X72483Y44900
X72483Y43900
X77133Y44300
X59033Y44300
X57033Y45800
X56783Y46300
X56033Y47800
X55533Y48300
X54633Y46950
X53533Y45550
X54383Y44900
X54383Y43900
X56083Y44000
X56083Y44650
X56033Y43300
X56133Y42850
X55533Y37200
X56033Y36700
X54633Y35850
X53533Y34450
X54383Y33800
X54383Y32800
X56083Y32900
X56033Y32200
X56133Y31750
X59033Y33200
X57033Y34700
X56783Y35200
X56083Y33550
X40933Y33200
X38933Y34700
X38683Y35200
X36533Y35850
X37933Y36700
X37433Y37200
X35433Y34450
X36283Y33800
X36283Y32800
X37983Y32900
X37933Y32200
X38033Y31750
X37983Y33550
X38033Y42850
X37933Y43300
X37983Y44000
X37983Y44650
X38933Y45800
X38683Y46300
X36533Y46950
X37433Y48300
X37933Y47800
X35433Y45550
X36283Y44900
X36283Y43900
X40933Y44300
X22833Y44300
X20833Y45800
X20583Y46300
X18433Y46950
X19333Y48300
X19833Y47800
X17333Y45550
X18183Y44900
X18183Y43900
X19883Y44000
X19883Y44650
X19833Y43300
X19933Y42850
X19333Y37200
X19833Y36700
X18433Y35850
X20583Y35200
X20833Y34700
X19883Y33550
X19883Y32900
X19833Y32200
X19933Y31750
X18183Y32800
X18183Y33800
X17333Y34450
X22833Y33200
X19333Y26100
X19833Y25600
X18433Y24750
X20583Y24100
X20833Y23600
X19883Y22450
X19883Y21800
X19833Y21100
X19933Y20650
X18183Y21700
X18183Y22700
X17333Y23350
X22833Y22100
T02
X23833Y22350
X24833Y21850
X24833Y22850
X23833Y23350
X24833Y23850
X23833Y24350
X24833Y24850
X23833Y25350
X31933Y25350
X32933Y24850
X31933Y24350
X32933Y23850
X31933Y23350
X32933Y22850
X31933Y22350
X32933Y21850
X41933Y22350
X42933Y21850
X42933Y22850
X41933Y23350
X42933Y23850
X41933Y24350
X42933Y24850
X41933Y25350
X50033Y25350
X51033Y24850
X50033Y24350
X51033Y23850
X50033Y23350
X51033Y22850
X50033Y22350
X51033Y21850
X60033Y22350
X61033Y21850
X61033Y22850
X60033Y23350
X61033Y23850
X60033Y24350
X61033Y24850
X60033Y25350
X68133Y25350
X69133Y24850
X68133Y24350
X69133Y23850
X68133Y23350
X69133Y22850
X68133Y22350
X69133Y21850
X78133Y22350
X79133Y21850
X79133Y22850
X78133Y23350
X79133Y23850
X78133Y24350
X79133Y24850
X78133Y25350
X79133Y32950
X78133Y33450
X79133Y33950
X78133Y34450
X79133Y34950
X78133Y35450
X79133Y35950
X78133Y36450
X69133Y35950
X68133Y35450
X69133Y34950
X68133Y34450
X69133Y33950
X68133Y33450
X69133Y32950
X68133Y36450
X61033Y35950
X60033Y35450
X61033Y34950
X60033Y34450
X61033Y33950
X60033Y33450
X61033Y32950
X60033Y36450
X51033Y35950
X50033Y35450
X51033Y34950
X50033Y34450
X51033Y33950
X50033Y33450
X51033Y32950
X50033Y36450
X42933Y35950
X41933Y35450
X42933Y34950
X41933Y34450
X42933Y33950
X41933Y33450
X42933Y32950
X41933Y36450
X32933Y35950
X31933Y35450
X32933Y34950
X31933Y34450
X32933Y33950
X31933Y33450
X32933Y32950
X31933Y36450
X24833Y35950
X23833Y35450
X24833Y34950
X23833Y34450
X24833Y33950
X23833Y33450
X24833Y32950
X23833Y36450
X14833Y35950
X13833Y35450
X14833Y34950
X13833Y34450
X14833Y33950
X13833Y33450
X14833Y32950
X13833Y36450
X14833Y44050
X13833Y44550
X14833Y45050
X13833Y45550
X14833Y46050
X13833Y46550
X14833Y47050
X13833Y47550
X23833Y47550
X24833Y47050
X23833Y46550
X24833Y46050
X23833Y45550
X24833Y45050
X23833Y44550
X24833Y44050
X31933Y44550
X32933Y44050
X32933Y45050
X31933Y45550
X32933Y46050
X31933Y46550
X32933Y47050
X31933Y47550
X41933Y47550
X42933Y47050
X41933Y46550
X42933Y46050
X41933Y45550
X42933Y45050
X41933Y44550
X42933Y44050
X50033Y44550
X51033Y44050
X51033Y45050
X50033Y45550
X51033Y46050
X50033Y46550
X51033Y47050
X50033Y47550
X60033Y47550
X61033Y47050
X60033Y46550
X61033Y46050
X60033Y45550
X61033Y45050
X60033Y44550
X61033Y44050
X68133Y44550
X69133Y44050
X69133Y45050
X68133Y45550
X69133Y46050
X68133Y46550
X69133Y47050
X68133Y47550
X78133Y47550
X79133Y47050
X78133Y46550
X79133Y46050
X78133Y45550
X79133Y45050
X78133Y44550
X79133Y44050
X78133Y14250
X79133Y13750
X78133Y13250
X79133Y12750
X78133Y12250
X79133Y11750
X78133Y11250
X79133Y10750
X69133Y10750
X68133Y11250
X69133Y11750
X68133Y12250
X69133Y12750
X68133Y13250
X69133Y13750
X68133Y14250
X61033Y13750
X60033Y13250
X61033Y12750
X60033Y12250
X61033Y11750
X60033Y11250
X61033Y10750
X60033Y14250
X51033Y13750
X50033Y13250
X51033Y12750
X50033Y12250
X51033Y11750
X50033Y11250
X51033Y10750
X50033Y14250
X42933Y13750
X41933Y13250
X42933Y12750
X41933Y12250
X42933Y11750
X41933Y11250
X42933Y10750
X41933Y14250
X32933Y13750
X31933Y13250
X32933Y12750
X31933Y12250
X32933Y11750
X31933Y11250
X32933Y10750
X31933Y14250
X24833Y13750
X23833Y13250
X24833Y12750
X23833Y12250
X24833Y11750
X23833Y11250
X24833Y10750
X23833Y14250
X14833Y13750
X13833Y13250
X14833Y12750
X13833Y12250
X14833Y11750
X13833Y11250
X14833Y10750
X13833Y14250
X14833Y21850
X13833Y22350
X14833Y22850
X13833Y23350
X14833Y23850
X13833Y24350
X14833Y24850
X13833Y25350
T03
X13333Y29700
X14333Y29700
X15333Y29700
X16333Y29700
X21333Y29700
X22333Y29700
X23333Y29700
X24333Y29700
X25333Y29700
X31433Y29700
X32433Y29700
X33433Y29700
X34433Y29700
X39433Y29700
X40433Y29700
X41433Y29700
X42433Y29700
X43433Y29700
X49533Y29700
X50533Y29700
X51533Y29700
X52533Y29700
X57533Y29700
X58533Y29700
X59533Y29700
X60533Y29700
X61533Y29700
X67633Y29700
X68633Y29700
X69633Y29700
X70633Y29700
X75633Y29700
X76633Y29700
X77633Y29700
X78633Y29700
X79633Y29700
X79633Y18600
X78633Y18600
X77633Y18600
X76633Y18600
X75633Y18600
X70633Y18600
X69633Y18600
X68633Y18600
X67633Y18600
X61533Y18600
X60533Y18600
X59533Y18600
X58533Y18600
X57533Y18600
X52533Y18600
X51533Y18600
X50533Y18600
X49533Y18600
X43433Y18600
X42433Y18600
X41433Y18600
X40433Y18600
X39433Y18600
X34433Y18600
X33433Y18600
X32433Y18600
X31433Y18600
X25333Y18600
X24333Y18600
X23333Y18600
X22333Y18600
X21333Y18600
X16333Y18600
X15333Y18600
X14333Y18600
X13333Y18600
X13333Y7500
X14333Y7500
X15333Y7500
X16333Y7500
X21333Y7500
X22333Y7500
X23333Y7500
X24333Y7500
X25333Y7500
X31433Y7500
X32433Y7500
X33433Y7500
X34433Y7500
X39433Y7500
X40433Y7500
X41433Y7500
X42433Y7500
X43433Y7500
X49533Y7500
X50533Y7500
X51533Y7500
X52533Y7500
X57533Y7500
X58533Y7500
X59533Y7500
X60533Y7500
X61533Y7500
X67633Y7500
X68633Y7500
X69633Y7500
X70633Y7500
X75633Y7500
X76633Y7500
X77633Y7500
X78633Y7500
X79633Y7500
X79633Y40800
X78633Y40800
X77633Y40800
X76633Y40800
X75633Y40800
X70633Y40800
X69633Y40800
X68633Y40800
X67633Y40800
X61533Y40800
X60533Y40800
X59533Y40800
X58533Y40800
X57533Y40800
X52533Y40800
X51533Y40800
X50533Y40800
X49533Y40800
X43433Y40800
X42433Y40800
X41433Y40800
X40433Y40800
X39433Y40800
X34433Y40800
X33433Y40800
X32433Y40800
X31433Y40800
X25333Y40800
X24333Y40800
X23333Y40800
X22333Y40800
X21333Y40800
X16333Y40800
X15333Y40800
X14333Y40800
X13333Y40800
T04
X11333Y8000
X11333Y17000
X11333Y19100
X11333Y28100
X11333Y30200
X11333Y39200
X11333Y41300
X11333Y50300
X27333Y50300
X29433Y50300
X29433Y41300
X27333Y41300
X27333Y39200
X29433Y39200
X29433Y30200
X27333Y30200
X27333Y28100
X29433Y28100
X29433Y19100
X27333Y19100
X27333Y17000
X29433Y17000
X29433Y8000
X27333Y8000
X45433Y8000
X47533Y8000
X47533Y17000
X45433Y17000
X45433Y19100
X47533Y19100
X47533Y28100
X45433Y28100
X45433Y30200
X47533Y30200
X47533Y39200
X45433Y39200
X45433Y41300
X47533Y41300
X47533Y50300
X45433Y50300
X63533Y50300
X65633Y50300
X65633Y41300
X63533Y41300
X63533Y39200
X65633Y39200
X65633Y30200
X63533Y30200
X63533Y28100
X65633Y28100
X65633Y19100
X63533Y19100
X63533Y17000
X65633Y17000
X65633Y8000
X63533Y8000
X81633Y8000
X81633Y17000
X81633Y19100
X81633Y28100
X81633Y30200
X81633Y39200
X81633Y41300
X81633Y50300
M30
